# xmcd
#
# Track frame offsets: 
#        150
#        18370
#        37234
#        51307
#        77280
#        88880
#        123891
#
# Disc length: 2293 seconds
#
# Revision: 0
# Processed by: cddbd v1.5.1PL0 Copyright (c) Steve Scherf et al.
# Submitted via: ExactAudioCopy v0.95a5
#
DISCID=5108f307
DTITLE=Ashville - The Desert Anomaly
DYEAR=2004
DGENRE=Stoner Core
TTITLE0=Torpedo Run
TTITLE1=Tribute
TTITLE2=Medina
TTITLE3=Search Light Soul
TTITLE4=KaDunG
TTITLE5=Ashville Burning
TTITLE6=Data
EXTD=
EXTT0=
EXTT1=
EXTT2=
EXTT3=
EXTT4=
EXTT5=
EXTT6=
PLAYORDER=
